<svg xmlns="http://www.w3.org/2000/svg" viewBox="0 0 32 32">
  <defs>
    <linearGradient id="grad" x1="0%" y1="0%" x2="100%" y2="100%">
      <stop offset="0%" style="stop-color:#7c3aed;stop-opacity:1" />
      <stop offset="100%" style="stop-color:#a78bfa;stop-opacity:1" />
    </linearGradient>
  </defs>
  <circle cx="16" cy="16" r="15" fill="url(#grad)"/>
  <path d="M16 8c-2.2 0-4 1.8-4 4 0 4 4 8 4 8s4-4 4-8c0-2.2-1.8-4-4-4zm0 5.5c-.83 0-1.5-.67-1.5-1.5s.67-1.5 1.5-1.5 1.5.67 1.5 1.5-.67 1.5-1.5 1.5z" fill="white" transform="translate(0, 2)"/>
  <path d="M10 18c0 0 2 4 6 4s6-4 6-4" stroke="white" stroke-width="1.5" fill="none" stroke-linecap="round"/>
</svg>
